<svg width="512" height="512" viewBox="0 0 512 512" xmlns="http://www.w3.org/2000/svg">
  <!-- Background -->
  <rect width="512" height="512" rx="80" fill="#2563eb"/>
  
  <!-- White circle background -->
  <circle cx="256" cy="256" r="180" fill="white" opacity="0.15"/>
  
  <!-- Letter R -->
  <g transform="translate(130, 140)">
    <path d="M 0 0 L 0 232 L 40 232 L 40 140 L 100 140 L 160 232 L 210 232 L 140 130 
             C 165 120 185 95 185 60 C 185 20 155 0 110 0 Z
             M 40 40 L 110 40 C 130 40 145 50 145 70 C 145 90 130 100 110 100 L 40 100 Z" 
          fill="white" 
          stroke="white" 
          stroke-width="2"/>
  </g>
  
  <!-- Small shopping bag icon -->
  <g transform="translate(320, 340)">
    <path d="M 0 10 L 10 10 L 10 5 C 10 2 12 0 15 0 C 18 0 20 2 20 5 L 20 10 L 30 10 L 32 40 L -2 40 Z" 
          fill="white" 
          opacity="0.8"/>
  </g>
</svg>
